<svg width="30" height="30" viewBox="0 0 30 30" fill="none" xmlns="http://www.w3.org/2000/svg">
<path d="M28.3333 25.6439C28.3333 25.9151 28.2252 26.1753 28.0329 26.3671C27.8405 26.5589 27.5797 26.6666 27.3077 26.6666H2.69227C2.42025 26.6666 2.15937 26.5589 1.96703 26.3671C1.77468 26.1753 1.66663 25.9151 1.66663 25.6439C1.66663 25.3727 1.77468 25.1125 1.96703 24.9207C2.15937 24.7289 2.42025 24.6212 2.69227 24.6212H27.3077C27.5797 24.6212 27.8405 24.7289 28.0329 24.9207C28.2252 25.1125 28.3333 25.3727 28.3333 25.6439ZM28.3333 6.21208V20.5303C28.3333 21.0728 28.1172 21.593 27.7325 21.9766C27.3478 22.3602 26.826 22.5757 26.282 22.5757H3.71791C3.17387 22.5757 2.65212 22.3602 2.26743 21.9766C1.88274 21.593 1.66663 21.0728 1.66663 20.5303V6.21208C1.66663 5.66959 1.88274 5.14932 2.26743 4.76573C2.65212 4.38213 3.17387 4.16663 3.71791 4.16663H26.282C26.826 4.16663 27.3478 4.38213 27.7325 4.76573C28.1172 5.14932 28.3333 5.66959 28.3333 6.21208ZM19.6153 13.3712C19.6153 13.2068 19.5755 13.0449 19.4994 12.8992C19.4233 12.7534 19.3131 12.6281 19.1782 12.5338L14.05 8.95427C13.8963 8.84692 13.716 8.78367 13.5288 8.77139C13.3416 8.75911 13.1546 8.79828 12.9881 8.88463C12.8217 8.97098 12.6822 9.1012 12.5848 9.26112C12.4874 9.42104 12.4359 9.60453 12.4359 9.79163V13.3712V16.9507C12.4359 17.1378 12.4874 17.3213 12.5848 17.4812C12.6822 17.6411 12.8217 17.7714 12.9881 17.8577C13.1546 17.9441 13.3416 17.9832 13.5288 17.971C13.716 17.9587 13.8963 17.8954 14.05 17.7881L19.1782 14.2085C19.3131 14.1142 19.4233 13.9889 19.4994 13.8432C19.5755 13.6974 19.6153 13.5355 19.6153 13.3712Z" fill="url(#paint0_linear_21236_569)"/>
<defs>
<linearGradient id="paint0_linear_21236_569" x1="15" y1="4.16663" x2="15" y2="26.6666" gradientUnits="userSpaceOnUse">
<stop stop-color="#F8E889"/>
<stop offset="1" stop-color="#E4B764"/>
</linearGradient>
</defs>
</svg>
