<svg width="30" height="30" viewBox="0 0 30 30" fill="none" xmlns="http://www.w3.org/2000/svg">
<path fill-rule="evenodd" clip-rule="evenodd" d="M9.02462 1.66663H24.8864C25.4102 1.66663 25.8333 2.09222 25.8333 2.61901V24.2857C25.8333 24.4166 25.7268 24.5238 25.5966 24.5238H23.9394C23.8092 24.5238 23.7027 24.4166 23.7027 24.2857V3.80948H9.02462C8.89441 3.80948 8.78788 3.70234 8.78788 3.57139V1.90472C8.78788 1.77377 8.89441 1.66663 9.02462 1.66663ZM5.94697 5.47615H21.0985C21.6223 5.47615 22.0455 5.90174 22.0455 6.42853V27.3809C22.0455 27.9077 21.6223 28.3333 21.0985 28.3333H11.0754C9.48581 28.3333 7.61782 28.3333 5.99975 28.3333C5.44747 28.3333 5 27.8867 5 27.3344C5 25.626 5 22.4192 5 22.2232V6.42853C5 5.90174 5.42318 5.47615 5.94697 5.47615ZM17.8135 16.1782C17.8896 16.3239 17.9293 16.4858 17.9294 16.6502C17.9293 16.8145 17.8896 16.9764 17.8135 17.1222C17.7374 17.2679 17.6272 17.3933 17.4922 17.4875L12.364 21.0671C12.2103 21.1744 12.0301 21.2377 11.8428 21.25C11.6556 21.2622 11.4686 21.2231 11.3022 21.1367C11.1357 21.0504 10.9962 20.9202 10.8988 20.7602C10.8015 20.6003 10.7499 20.4168 10.7499 20.2297V16.6502V13.0706C10.7499 12.8835 10.8015 12.7 10.8988 12.5401C10.9962 12.3802 11.1357 12.25 11.3022 12.1636C11.4686 12.0773 11.6556 12.0381 11.8428 12.0504C12.0301 12.0627 12.2103 12.1259 12.364 12.2333L17.4922 15.8128C17.6272 15.9071 17.7374 16.0324 17.8135 16.1782Z" fill="url(#paint0_linear_21236_559)"/>
<defs>
<linearGradient id="paint0_linear_21236_559" x1="15.4167" y1="1.66663" x2="15.4167" y2="28.3333" gradientUnits="userSpaceOnUse">
<stop stop-color="#F8E889"/>
<stop offset="1" stop-color="#E4B764"/>
</linearGradient>
</defs>
</svg>
