<svg width="30" height="30" viewBox="0 0 30 30" fill="none" xmlns="http://www.w3.org/2000/svg">
<path d="M1.66675 6.87496C1.66675 5.38538 2.86675 4.16663 4.33341 4.16663H25.6667C26.374 4.16663 27.0523 4.45197 27.5524 4.95988C28.0525 5.46779 28.3334 6.15666 28.3334 6.87496V23.125C28.3334 23.8433 28.0525 24.5321 27.5524 25.04C27.0523 25.548 26.374 25.8333 25.6667 25.8333H4.33341C3.62617 25.8333 2.94789 25.548 2.4478 25.04C1.9477 24.5321 1.66675 23.8433 1.66675 23.125V6.87496ZM9.66675 6.87496V23.125H20.3334V6.87496H9.66675ZM4.33341 8.22913V10.9375H7.00008V8.22913H4.33341ZM4.33341 13.6458V16.3541H7.00008V13.6458H4.33341ZM4.33341 19.0625V21.7708H7.00008V19.0625H4.33341ZM23.0001 8.22913V10.9375H25.6667V8.22913H23.0001ZM23.0001 13.6458V16.3541H25.6667V13.6458H23.0001ZM23.0001 19.0625V21.7708H25.6667V19.0625H23.0001ZM12.3334 10.9375L19.0001 15L12.3334 19.0625V10.9375Z" fill="url(#paint0_linear_21236_578)"/>
<defs>
<linearGradient id="paint0_linear_21236_578" x1="15.0001" y1="4.16663" x2="15.0001" y2="25.8333" gradientUnits="userSpaceOnUse">
<stop stop-color="#F8E889"/>
<stop offset="1" stop-color="#E4B764"/>
</linearGradient>
</defs>
</svg>
