<svg width="34" height="34" viewBox="0 0 64 34" fill="none" xmlns="http://www.w3.org/2000/svg">
<g filter="url(#filter0_dddd_21268_429)">
<g clip-path="url(#clip0_21268_429)">
<g clip-path="url(#clip1_21268_429)">
<path d="M17 31C24.732 31 31 24.732 31 17C31 9.26801 24.732 3 17 3C9.26802 3 3 9.26801 3 17C3 24.732 9.26802 31 17 31Z" fill="#FF1D1D"/>
<path d="M17 10.3043L18.511 14.9544H23.4003L19.4447 17.8282L20.9556 22.4782L17 19.6044L13.0445 22.4782L14.5554 17.8282L10.5999 14.9544H15.4891L17 10.3043Z" fill="#F8E889"/>
<path opacity="0.25" d="M25.8799 7.8408C27.9228 11.3899 23.7471 15.3786 18.3863 18.4644C13.0254 21.5503 6.56429 23.0223 5.39668 19.7778C4.00997 15.9247 5.79246 9.2311 11.1534 6.14525C16.5142 3.0594 23.8369 4.29169 25.8799 7.8408Z" fill="white"/>
</g>
</g>
<rect x="2.5" y="2.5" width="29" height="29" rx="14.5" stroke="white"/>
</g>
<defs>
<filter id="filter0_dddd_21268_429" x="-30" y="-4" width="94" height="147" filterUnits="userSpaceOnUse" color-interpolation-filters="sRGB">
<feFlood flood-opacity="0" result="BackgroundImageFix"/>
<feColorMatrix in="SourceAlpha" type="matrix" values="0 0 0 0 0 0 0 0 0 0 0 0 0 0 0 0 0 0 127 0" result="hardAlpha"/>
<feOffset dy="5"/>
<feGaussianBlur stdDeviation="5.5"/>
<feColorMatrix type="matrix" values="0 0 0 0 0 0 0 0 0 0 0 0 0 0 0 0 0 0 0.1 0"/>
<feBlend mode="normal" in2="BackgroundImageFix" result="effect1_dropShadow_21268_429"/>
<feColorMatrix in="SourceAlpha" type="matrix" values="0 0 0 0 0 0 0 0 0 0 0 0 0 0 0 0 0 0 127 0" result="hardAlpha"/>
<feOffset dy="20"/>
<feGaussianBlur stdDeviation="10"/>
<feColorMatrix type="matrix" values="0 0 0 0 0 0 0 0 0 0 0 0 0 0 0 0 0 0 0.09 0"/>
<feBlend mode="normal" in2="effect1_dropShadow_21268_429" result="effect2_dropShadow_21268_429"/>
<feColorMatrix in="SourceAlpha" type="matrix" values="0 0 0 0 0 0 0 0 0 0 0 0 0 0 0 0 0 0 127 0" result="hardAlpha"/>
<feOffset dy="45"/>
<feGaussianBlur stdDeviation="13.5"/>
<feColorMatrix type="matrix" values="0 0 0 0 0 0 0 0 0 0 0 0 0 0 0 0 0 0 0.05 0"/>
<feBlend mode="normal" in2="effect2_dropShadow_21268_429" result="effect3_dropShadow_21268_429"/>
<feColorMatrix in="SourceAlpha" type="matrix" values="0 0 0 0 0 0 0 0 0 0 0 0 0 0 0 0 0 0 127 0" result="hardAlpha"/>
<feOffset dy="79"/>
<feGaussianBlur stdDeviation="16"/>
<feColorMatrix type="matrix" values="0 0 0 0 0 0 0 0 0 0 0 0 0 0 0 0 0 0 0.01 0"/>
<feBlend mode="normal" in2="effect3_dropShadow_21268_429" result="effect4_dropShadow_21268_429"/>
<feBlend mode="normal" in="SourceGraphic" in2="effect4_dropShadow_21268_429" result="shape"/>
</filter>
<clipPath id="clip0_21268_429">
<rect x="2" y="2" width="30" height="30" rx="15" fill="white"/>
</clipPath>
<clipPath id="clip1_21268_429">
<rect width="28" height="28" fill="white" transform="translate(3 3)"/>
</clipPath>
</defs>
</svg>
